# This file uses centimeters as units for non-parametric coordinates.

mtllib spongebob house.mtl
g default
v 2.500000 -0.500000 0.000000
v 2.377641 -0.500000 -0.772542
v 2.022543 -0.500000 -1.469463
v 1.469463 -0.500000 -2.022542
v 0.772543 -0.500000 -2.377641
v 0.000000 -0.500000 -2.500000
v -0.772542 -0.500000 -2.377642
v -1.469463 -0.500000 -2.022543
v -2.022543 -0.500000 -1.469464
v -2.377642 -0.500000 -0.772543
v -2.500001 -0.500000 -0.000000
v -2.377642 -0.500000 0.772542
v -2.022543 -0.500000 1.469463
v -1.469464 -0.500000 2.022543
v -0.772543 -0.500000 2.377642
v -0.000000 -0.500000 2.500001
v 0.772543 -0.500000 2.377642
v 1.469464 -0.500000 2.022544
v 2.022543 -0.500000 1.469464
v 2.377642 -0.500000 0.772543
v 2.500000 0.500000 0.000000
v 2.377641 0.500000 -0.772542
v 2.022543 0.500000 -1.469463
v 1.469463 0.500000 -2.022542
v 0.772543 0.500000 -2.377641
v 0.000000 0.500000 -2.500000
v -0.772542 0.500000 -2.377642
v -1.469463 0.500000 -2.022543
v -2.022543 0.500000 -1.469464
v -2.377642 0.500000 -0.772543
v -2.500001 0.500000 -0.000000
v -2.377642 0.500000 0.772542
v -2.022543 0.500000 1.469463
v -1.469464 0.500000 2.022543
v -0.772543 0.500000 2.377642
v -0.000000 0.500000 2.500001
v 0.772543 0.500000 2.377642
v 1.469464 0.500000 2.022544
v 2.022543 0.500000 1.469464
v 2.377642 0.500000 0.772543
v 3.000000 0.500000 0.000000
v 2.853170 0.500000 -0.927051
v 2.427051 0.500000 -1.763356
v 1.763356 0.500000 -2.427051
v 0.927051 0.500000 -2.853170
v 0.000000 0.500000 -3.000001
v -0.927051 0.500000 -2.853170
v -1.763356 0.500000 -2.427052
v -2.427052 0.500000 -1.763356
v -2.853170 0.500000 -0.927051
v -3.000001 0.500000 -0.000000
v -2.853171 0.500000 0.927051
v -2.427052 0.500000 1.763356
v -1.763357 0.500000 2.427052
v -0.927052 0.500000 2.853171
v -0.000000 0.500000 3.000001
v 0.927051 0.500000 2.853171
v 1.763356 0.500000 2.427052
v 2.427052 0.500000 1.763357
v 2.853171 0.500000 0.927052
v 3.000000 -0.500000 0.000000
v 2.853170 -0.500000 -0.927051
v 2.427051 -0.500000 -1.763356
v 1.763356 -0.500000 -2.427051
v 0.927051 -0.500000 -2.853170
v 0.000000 -0.500000 -3.000001
v -0.927051 -0.500000 -2.853170
v -1.763356 -0.500000 -2.427052
v -2.427052 -0.500000 -1.763356
v -2.853170 -0.500000 -0.927051
v -3.000001 -0.500000 -0.000000
v -2.853171 -0.500000 0.927051
v -2.427052 -0.500000 1.763356
v -1.763357 -0.500000 2.427052
v -0.927052 -0.500000 2.853171
v -0.000000 -0.500000 3.000001
v 0.927051 -0.500000 2.853171
v 1.763356 -0.500000 2.427052
v 2.427052 -0.500000 1.763357
v 2.853171 -0.500000 0.927052
vt 0.000000 1.000000
vt 0.050000 1.000000
vt 0.100000 1.000000
vt 0.150000 1.000000
vt 0.200000 1.000000
vt 0.250000 1.000000
vt 0.300000 1.000000
vt 0.350000 1.000000
vt 0.400000 1.000000
vt 0.450000 1.000000
vt 0.500000 1.000000
vt 0.550000 1.000000
vt 0.600000 1.000000
vt 0.650000 1.000000
vt 0.700000 1.000000
vt 0.750000 1.000000
vt 0.800000 1.000000
vt 0.850000 1.000000
vt 0.900000 1.000000
vt 0.950000 1.000000
vt 1.000000 1.000000
vt 0.000000 0.750000
vt 0.050000 0.750000
vt 0.100000 0.750000
vt 0.150000 0.750000
vt 0.200000 0.750000
vt 0.250000 0.750000
vt 0.300000 0.750000
vt 0.350000 0.750000
vt 0.400000 0.750000
vt 0.450000 0.750000
vt 0.500000 0.750000
vt 0.550000 0.750000
vt 0.600000 0.750000
vt 0.650000 0.750000
vt 0.700000 0.750000
vt 0.750000 0.750000
vt 0.800000 0.750000
vt 0.850000 0.750000
vt 0.900000 0.750000
vt 0.950000 0.750000
vt 1.000000 0.750000
vt 0.000000 0.500000
vt 0.050000 0.500000
vt 0.100000 0.500000
vt 0.150000 0.500000
vt 0.200000 0.500000
vt 0.250000 0.500000
vt 0.300000 0.500000
vt 0.350000 0.500000
vt 0.400000 0.500000
vt 0.450000 0.500000
vt 0.500000 0.500000
vt 0.550000 0.500000
vt 0.600000 0.500000
vt 0.650000 0.500000
vt 0.700000 0.500000
vt 0.750000 0.500000
vt 0.800000 0.500000
vt 0.850000 0.500000
vt 0.900000 0.500000
vt 0.950000 0.500000
vt 1.000000 0.500000
vt 0.000000 0.250000
vt 0.050000 0.250000
vt 0.100000 0.250000
vt 0.150000 0.250000
vt 0.200000 0.250000
vt 0.250000 0.250000
vt 0.300000 0.250000
vt 0.350000 0.250000
vt 0.400000 0.250000
vt 0.450000 0.250000
vt 0.500000 0.250000
vt 0.550000 0.250000
vt 0.600000 0.250000
vt 0.650000 0.250000
vt 0.700000 0.250000
vt 0.750000 0.250000
vt 0.800000 0.250000
vt 0.850000 0.250000
vt 0.900000 0.250000
vt 0.950000 0.250000
vt 1.000000 0.250000
vt 0.000000 0.000000
vt 0.050000 0.000000
vt 0.100000 0.000000
vt 0.150000 0.000000
vt 0.200000 0.000000
vt 0.250000 0.000000
vt 0.300000 0.000000
vt 0.350000 0.000000
vt 0.400000 0.000000
vt 0.450000 0.000000
vt 0.500000 0.000000
vt 0.550000 0.000000
vt 0.600000 0.000000
vt 0.650000 0.000000
vt 0.700000 0.000000
vt 0.750000 0.000000
vt 0.800000 0.000000
vt 0.850000 0.000000
vt 0.900000 0.000000
vt 0.950000 0.000000
vt 1.000000 0.000000
vn -0.951057 0.000000 0.309017
vn -1.000000 0.000000 0.000001
vn -1.000000 0.000000 0.000001
vn -0.951057 0.000000 0.309017
vn -0.809017 0.000000 0.587785
vn -0.809017 0.000000 0.587785
vn -0.587785 0.000000 0.809017
vn -0.587785 0.000000 0.809017
vn -0.309017 0.000000 0.951057
vn -0.309017 0.000000 0.951057
vn -0.000000 0.000000 1.000000
vn -0.000000 0.000000 1.000000
vn 0.309017 0.000000 0.951057
vn 0.309017 0.000000 0.951057
vn 0.587785 0.000000 0.809017
vn 0.587785 0.000000 0.809017
vn 0.809017 0.000000 0.587785
vn 0.809017 0.000000 0.587785
vn 0.951056 0.000000 0.309017
vn 0.951056 0.000000 0.309017
vn 1.000000 0.000000 0.000000
vn 1.000000 0.000000 0.000000
vn 0.951057 0.000000 -0.309017
vn 0.951057 0.000000 -0.309017
vn 0.809017 0.000000 -0.587785
vn 0.809017 0.000000 -0.587785
vn 0.587785 0.000000 -0.809017
vn 0.587785 0.000000 -0.809017
vn 0.309017 0.000000 -0.951056
vn 0.309017 0.000000 -0.951056
vn 0.000000 0.000000 -1.000000
vn 0.000000 0.000000 -1.000000
vn -0.309017 0.000000 -0.951057
vn -0.309017 0.000000 -0.951057
vn -0.587785 0.000000 -0.809017
vn -0.587785 0.000000 -0.809017
vn -0.809017 0.000000 -0.587785
vn -0.809017 0.000000 -0.587785
vn -0.951057 0.000000 -0.309016
vn -0.951057 0.000000 -0.309016
vn 0.000000 1.000000 0.000000
vn 0.000000 1.000000 0.000000
vn 0.000000 1.000000 0.000000
vn 0.000000 1.000000 0.000000
vn 0.000000 1.000000 0.000000
vn 0.000000 1.000000 0.000000
vn 0.000000 1.000000 0.000000
vn 0.000000 1.000000 0.000000
vn 0.000000 1.000000 0.000000
vn 0.000000 1.000000 0.000000
vn 0.000000 1.000000 0.000000
vn 0.000000 1.000000 0.000000
vn 0.000000 1.000000 0.000000
vn 0.000000 1.000000 0.000000
vn 0.000000 1.000000 0.000000
vn 0.000000 1.000000 0.000000
vn 0.000000 1.000000 0.000000
vn 0.000000 1.000000 0.000000
vn 0.000000 1.000000 0.000000
vn 0.000000 1.000000 0.000000
vn 0.000000 1.000000 0.000000
vn 0.000000 1.000000 0.000000
vn 0.000000 1.000000 0.000000
vn 0.000000 1.000000 0.000000
vn 0.000000 1.000000 0.000000
vn 0.000000 1.000000 0.000000
vn 0.000000 1.000000 0.000000
vn 0.000000 1.000000 0.000000
vn 0.000000 1.000000 0.000000
vn 0.000000 1.000000 0.000000
vn 0.000000 1.000000 0.000000
vn 0.000000 1.000000 0.000000
vn 0.000000 1.000000 0.000000
vn 0.000000 1.000000 0.000000
vn 0.000000 1.000000 0.000000
vn 0.000000 1.000000 0.000000
vn 0.000000 1.000000 0.000000
vn 0.000000 1.000000 0.000000
vn 0.000000 1.000000 0.000000
vn 0.000000 1.000000 0.000000
vn 0.951057 0.000000 -0.309017
vn 1.000000 0.000000 -0.000001
vn 1.000000 0.000000 -0.000001
vn 0.951057 0.000000 -0.309017
vn 0.809017 0.000000 -0.587785
vn 0.809017 0.000000 -0.587785
vn 0.587785 0.000000 -0.809017
vn 0.587785 0.000000 -0.809017
vn 0.309017 0.000000 -0.951056
vn 0.309017 0.000000 -0.951056
vn 0.000000 0.000000 -1.000000
vn 0.000000 0.000000 -1.000000
vn -0.309017 0.000000 -0.951057
vn -0.309017 0.000000 -0.951057
vn -0.587785 0.000000 -0.809017
vn -0.587785 0.000000 -0.809017
vn -0.809017 0.000000 -0.587785
vn -0.809017 0.000000 -0.587785
vn -0.951057 0.000000 -0.309017
vn -0.951057 0.000000 -0.309017
vn -1.000000 0.000000 -0.000000
vn -1.000000 0.000000 -0.000000
vn -0.951057 0.000000 0.309017
vn -0.951057 0.000000 0.309017
vn -0.809017 0.000000 0.587785
vn -0.809017 0.000000 0.587785
vn -0.587786 0.000000 0.809017
vn -0.587786 0.000000 0.809017
vn -0.309017 0.000000 0.951057
vn -0.309017 0.000000 0.951057
vn 0.000000 0.000000 1.000000
vn 0.000000 0.000000 1.000000
vn 0.309017 0.000000 0.951057
vn 0.309017 0.000000 0.951057
vn 0.587785 0.000000 0.809017
vn 0.587785 0.000000 0.809017
vn 0.809017 0.000000 0.587785
vn 0.809017 0.000000 0.587785
vn 0.951057 0.000000 0.309016
vn 0.951057 0.000000 0.309016
vn 0.000000 -1.000000 0.000000
vn 0.000000 -1.000000 0.000000
vn 0.000000 -1.000000 0.000000
vn 0.000000 -1.000000 0.000000
vn 0.000000 -1.000000 0.000000
vn 0.000000 -1.000000 0.000000
vn 0.000000 -1.000000 0.000000
vn 0.000000 -1.000000 0.000000
vn 0.000000 -1.000000 0.000000
vn 0.000000 -1.000000 0.000000
vn 0.000000 -1.000000 0.000000
vn 0.000000 -1.000000 0.000000
vn 0.000000 -1.000000 0.000000
vn 0.000000 -1.000000 0.000000
vn 0.000000 -1.000000 0.000000
vn 0.000000 -1.000000 0.000000
vn 0.000000 -1.000000 0.000000
vn 0.000000 -1.000000 0.000000
vn 0.000000 -1.000000 0.000000
vn 0.000000 -1.000000 0.000000
vn 0.000000 -1.000000 0.000000
vn 0.000000 -1.000000 0.000000
vn 0.000000 -1.000000 0.000000
vn 0.000000 -1.000000 0.000000
vn 0.000000 -1.000000 0.000000
vn 0.000000 -1.000000 0.000000
vn 0.000000 -1.000000 0.000000
vn 0.000000 -1.000000 0.000000
vn 0.000000 -1.000000 0.000000
vn 0.000000 -1.000000 0.000000
vn 0.000000 -1.000000 0.000000
vn 0.000000 -1.000000 0.000000
vn 0.000000 -1.000000 0.000000
vn 0.000000 -1.000000 0.000000
vn 0.000000 -1.000000 0.000000
vn 0.000000 -1.000000 0.000000
vn 0.000000 -1.000000 0.000000
vn 0.000000 -1.000000 0.000000
vn 0.000000 -1.000000 0.000000
vn 0.000000 -1.000000 0.000000
s 1
g pPipe1
usemtl initialShadingGroup
f 2/2/1 1/1/2 21/22/3 22/23/4
f 3/3/5 2/2/1 22/23/4 23/24/6
f 4/4/7 3/3/5 23/24/6 24/25/8
f 5/5/9 4/4/7 24/25/8 25/26/10
f 6/6/11 5/5/9 25/26/10 26/27/12
f 7/7/13 6/6/11 26/27/12 27/28/14
f 8/8/15 7/7/13 27/28/14 28/29/16
f 9/9/17 8/8/15 28/29/16 29/30/18
f 10/10/19 9/9/17 29/30/18 30/31/20
f 11/11/21 10/10/19 30/31/20 31/32/22
f 12/12/23 11/11/21 31/32/22 32/33/24
f 13/13/25 12/12/23 32/33/24 33/34/26
f 14/14/27 13/13/25 33/34/26 34/35/28
f 15/15/29 14/14/27 34/35/28 35/36/30
f 16/16/31 15/15/29 35/36/30 36/37/32
f 17/17/33 16/16/31 36/37/32 37/38/34
f 18/18/35 17/17/33 37/38/34 38/39/36
f 19/19/37 18/18/35 38/39/36 39/40/38
f 20/20/39 19/19/37 39/40/38 40/41/40
f 1/21/2 20/20/39 40/41/40 21/42/3
s 2
f 22/23/41 21/22/42 41/43/43 42/44/44
f 23/24/45 22/23/41 42/44/44 43/45/46
f 24/25/47 23/24/45 43/45/46 44/46/48
f 25/26/49 24/25/47 44/46/48 45/47/50
f 26/27/51 25/26/49 45/47/50 46/48/52
f 27/28/53 26/27/51 46/48/52 47/49/54
f 28/29/55 27/28/53 47/49/54 48/50/56
f 29/30/57 28/29/55 48/50/56 49/51/58
f 30/31/59 29/30/57 49/51/58 50/52/60
f 31/32/61 30/31/59 50/52/60 51/53/62
f 32/33/63 31/32/61 51/53/62 52/54/64
f 33/34/65 32/33/63 52/54/64 53/55/66
f 34/35/67 33/34/65 53/55/66 54/56/68
f 35/36/69 34/35/67 54/56/68 55/57/70
f 36/37/71 35/36/69 55/57/70 56/58/72
f 37/38/73 36/37/71 56/58/72 57/59/74
f 38/39/75 37/38/73 57/59/74 58/60/76
f 39/40/77 38/39/75 58/60/76 59/61/78
f 40/41/79 39/40/77 59/61/78 60/62/80
f 21/42/42 40/41/79 60/62/80 41/63/43
s 3
f 42/44/81 41/43/82 61/64/83 62/65/84
f 43/45/85 42/44/81 62/65/84 63/66/86
f 44/46/87 43/45/85 63/66/86 64/67/88
f 45/47/89 44/46/87 64/67/88 65/68/90
f 46/48/91 45/47/89 65/68/90 66/69/92
f 47/49/93 46/48/91 66/69/92 67/70/94
f 48/50/95 47/49/93 67/70/94 68/71/96
f 49/51/97 48/50/95 68/71/96 69/72/98
f 50/52/99 49/51/97 69/72/98 70/73/100
f 51/53/101 50/52/99 70/73/100 71/74/102
f 52/54/103 51/53/101 71/74/102 72/75/104
f 53/55/105 52/54/103 72/75/104 73/76/106
f 54/56/107 53/55/105 73/76/106 74/77/108
f 55/57/109 54/56/107 74/77/108 75/78/110
f 56/58/111 55/57/109 75/78/110 76/79/112
f 57/59/113 56/58/111 76/79/112 77/80/114
f 58/60/115 57/59/113 77/80/114 78/81/116
f 59/61/117 58/60/115 78/81/116 79/82/118
f 60/62/119 59/61/117 79/82/118 80/83/120
f 41/63/82 60/62/119 80/83/120 61/84/83
s 4
f 62/65/121 61/64/122 1/85/123 2/86/124
f 63/66/125 62/65/121 2/86/124 3/87/126
f 64/67/127 63/66/125 3/87/126 4/88/128
f 65/68/129 64/67/127 4/88/128 5/89/130
f 66/69/131 65/68/129 5/89/130 6/90/132
f 67/70/133 66/69/131 6/90/132 7/91/134
f 68/71/135 67/70/133 7/91/134 8/92/136
f 69/72/137 68/71/135 8/92/136 9/93/138
f 70/73/139 69/72/137 9/93/138 10/94/140
f 71/74/141 70/73/139 10/94/140 11/95/142
f 72/75/143 71/74/141 11/95/142 12/96/144
f 73/76/145 72/75/143 12/96/144 13/97/146
f 74/77/147 73/76/145 13/97/146 14/98/148
f 75/78/149 74/77/147 14/98/148 15/99/150
f 76/79/151 75/78/149 15/99/150 16/100/152
f 77/80/153 76/79/151 16/100/152 17/101/154
f 78/81/155 77/80/153 17/101/154 18/102/156
f 79/82/157 78/81/155 18/102/156 19/103/158
f 80/83/159 79/82/157 19/103/158 20/104/160
f 61/84/122 80/83/159 20/104/160 1/105/123
g default
v 7.710410 -0.320626 0.000000
v 7.643635 -0.320626 -0.753740
v 7.449847 -0.320626 -1.433699
v 7.148014 -0.320626 -1.973318
v 6.767683 -0.320626 -2.319774
v 6.346083 -0.320626 -2.439155
v 5.924482 -0.320626 -2.319774
v 5.544151 -0.320626 -1.973318
v 5.242318 -0.320626 -1.433699
v 5.048530 -0.320626 -0.753740
v 4.981755 -0.320626 0.000000
v 7.710410 0.320626 0.000000
v 7.643635 0.320626 -0.753740
v 7.449847 0.320626 -1.433699
v 7.148014 0.320626 -1.973318
v 6.767683 0.320626 -2.319774
v 6.346083 0.320626 -2.439155
v 5.924482 0.320626 -2.319774
v 5.544151 0.320626 -1.973318
v 5.242318 0.320626 -1.433699
v 5.048530 0.320626 -0.753740
v 4.981755 0.320626 0.000000
v 7.905314 0.320626 0.000000
v 7.829000 0.320626 -0.861417
v 7.607527 0.320626 -1.638513
v 7.262576 0.320626 -2.255220
v 6.827912 0.320626 -2.651170
v 6.346083 0.320626 -2.787606
v 5.864254 0.320626 -2.651170
v 5.429589 0.320626 -2.255220
v 5.084638 0.320626 -1.638514
v 4.863165 0.320626 -0.861418
v 4.786851 0.320626 0.000000
v 7.905314 -0.320626 0.000000
v 7.829000 -0.320626 -0.861417
v 7.607527 -0.320626 -1.638513
v 7.262576 -0.320626 -2.255220
v 6.827912 -0.320626 -2.651170
v 6.346083 -0.320626 -2.787606
v 5.864254 -0.320626 -2.651170
v 5.429589 -0.320626 -2.255220
v 5.084638 -0.320626 -1.638514
v 4.863165 -0.320626 -0.861418
v 4.786851 -0.320626 0.000000
vt 0.000000 1.000000
vt 0.050000 1.000000
vt 0.100000 1.000000
vt 0.150000 1.000000
vt 0.200000 1.000000
vt 0.250000 1.000000
vt 0.300000 1.000000
vt 0.350000 1.000000
vt 0.400000 1.000000
vt 0.450000 1.000000
vt 0.500000 1.000000
vt 0.000000 0.750000
vt 0.050000 0.750000
vt 0.100000 0.750000
vt 0.150000 0.750000
vt 0.200000 0.750000
vt 0.250000 0.750000
vt 0.300000 0.750000
vt 0.350000 0.750000
vt 0.400000 0.750000
vt 0.450000 0.750000
vt 0.500000 0.750000
vt 0.000000 0.500000
vt 0.050000 0.500000
vt 0.100000 0.500000
vt 0.150000 0.500000
vt 0.200000 0.500000
vt 0.250000 0.500000
vt 0.300000 0.500000
vt 0.350000 0.500000
vt 0.400000 0.500000
vt 0.450000 0.500000
vt 0.500000 0.500000
vt 0.000000 0.250000
vt 0.050000 0.250000
vt 0.100000 0.250000
vt 0.150000 0.250000
vt 0.200000 0.250000
vt 0.250000 0.250000
vt 0.300000 0.250000
vt 0.350000 0.250000
vt 0.400000 0.250000
vt 0.450000 0.250000
vt 0.500000 0.250000
vt 0.000000 0.000000
vt 0.050000 0.000000
vt 0.100000 0.000000
vt 0.150000 0.000000
vt 0.200000 0.000000
vt 0.250000 0.000000
vt 0.300000 0.000000
vt 0.350000 0.000000
vt 0.400000 0.000000
vt 0.450000 0.000000
vt 0.500000 0.000000
vn -0.983883 0.000000 0.178813
vn -0.996099 0.000000 0.088246
vn -0.996099 0.000000 0.088246
vn -0.983883 0.000000 0.178813
vn -0.926422 0.000000 0.376486
vn -0.926422 0.000000 0.376486
vn -0.792379 0.000000 0.610030
vn -0.792379 0.000000 0.610030
vn -0.502296 0.000000 0.864695
vn -0.502296 0.000000 0.864695
vn -0.000000 0.000000 1.000000
vn -0.000000 0.000000 1.000000
vn 0.502296 0.000000 0.864696
vn 0.502296 0.000000 0.864696
vn 0.792379 0.000000 0.610030
vn 0.792379 0.000000 0.610030
vn 0.926422 0.000000 0.376486
vn 0.926422 0.000000 0.376486
vn 0.983883 0.000000 0.178813
vn 0.983883 0.000000 0.178813
vn 0.996099 0.000000 0.088246
vn 0.996099 0.000000 0.088246
vn 0.000000 1.000000 0.000000
vn 0.000000 1.000000 0.000000
vn 0.000000 1.000000 0.000000
vn 0.000000 1.000000 0.000000
vn 0.000000 1.000000 0.000000
vn 0.000000 1.000000 0.000000
vn 0.000000 1.000000 0.000000
vn 0.000000 1.000000 0.000000
vn 0.000000 1.000000 0.000000
vn 0.000000 1.000000 0.000000
vn 0.000000 1.000000 0.000000
vn 0.000000 1.000000 0.000000
vn 0.000000 1.000000 0.000000
vn 0.000000 1.000000 0.000000
vn 0.000000 1.000000 0.000000
vn 0.000000 1.000000 0.000000
vn 0.000000 1.000000 0.000000
vn 0.000000 1.000000 0.000000
vn 0.000000 1.000000 0.000000
vn 0.000000 1.000000 0.000000
vn 0.000000 1.000000 0.000000
vn 0.000000 1.000000 0.000000
vn 0.983883 0.000000 -0.178813
vn 0.996099 0.000000 -0.088246
vn 0.996099 0.000000 -0.088246
vn 0.983883 0.000000 -0.178813
vn 0.926422 0.000000 -0.376486
vn 0.926422 0.000000 -0.376486
vn 0.792379 0.000000 -0.610030
vn 0.792379 0.000000 -0.610030
vn 0.502296 0.000000 -0.864696
vn 0.502296 0.000000 -0.864696
vn 0.000000 0.000000 -1.000000
vn 0.000000 0.000000 -1.000000
vn -0.502296 0.000000 -0.864696
vn -0.502296 0.000000 -0.864696
vn -0.792378 0.000000 -0.610030
vn -0.792378 0.000000 -0.610030
vn -0.926422 0.000000 -0.376487
vn -0.926422 0.000000 -0.376487
vn -0.983883 0.000000 -0.178813
vn -0.983883 0.000000 -0.178813
vn -0.996099 0.000000 -0.088246
vn -0.996099 0.000000 -0.088246
vn 0.000000 -1.000000 0.000000
vn 0.000000 -1.000000 0.000000
vn 0.000000 -1.000000 0.000000
vn 0.000000 -1.000000 0.000000
vn 0.000000 -1.000000 0.000000
vn 0.000000 -1.000000 0.000000
vn 0.000000 -1.000000 0.000000
vn 0.000000 -1.000000 0.000000
vn 0.000000 -1.000000 0.000000
vn 0.000000 -1.000000 0.000000
vn 0.000000 -1.000000 0.000000
vn 0.000000 -1.000000 0.000000
vn 0.000000 -1.000000 0.000000
vn 0.000000 -1.000000 0.000000
vn 0.000000 -1.000000 0.000000
vn 0.000000 -1.000000 0.000000
vn 0.000000 -1.000000 0.000000
vn 0.000000 -1.000000 0.000000
vn 0.000000 -1.000000 0.000000
vn 0.000000 -1.000000 0.000000
vn 0.000000 -1.000000 0.000000
vn 0.000000 -1.000000 0.000000
s 1
g pasted__pPipe1 group
usemtl initialShadingGroup
f 82/107/161 81/106/162 92/117/163 93/118/164
f 83/108/165 82/107/161 93/118/164 94/119/166
f 84/109/167 83/108/165 94/119/166 95/120/168
f 85/110/169 84/109/167 95/120/168 96/121/170
f 86/111/171 85/110/169 96/121/170 97/122/172
f 87/112/173 86/111/171 97/122/172 98/123/174
f 88/113/175 87/112/173 98/123/174 99/124/176
f 89/114/177 88/113/175 99/124/176 100/125/178
f 90/115/179 89/114/177 100/125/178 101/126/180
f 91/116/181 90/115/179 101/126/180 102/127/182
s 2
f 93/118/183 92/117/184 103/128/185 104/129/186
f 94/119/187 93/118/183 104/129/186 105/130/188
f 95/120/189 94/119/187 105/130/188 106/131/190
f 96/121/191 95/120/189 106/131/190 107/132/192
f 97/122/193 96/121/191 107/132/192 108/133/194
f 98/123/195 97/122/193 108/133/194 109/134/196
f 99/124/197 98/123/195 109/134/196 110/135/198
f 100/125/199 99/124/197 110/135/198 111/136/200
f 101/126/201 100/125/199 111/136/200 112/137/202
f 102/127/203 101/126/201 112/137/202 113/138/204
s 3
f 104/129/205 103/128/206 114/139/207 115/140/208
f 105/130/209 104/129/205 115/140/208 116/141/210
f 106/131/211 105/130/209 116/141/210 117/142/212
f 107/132/213 106/131/211 117/142/212 118/143/214
f 108/133/215 107/132/213 118/143/214 119/144/216
f 109/134/217 108/133/215 119/144/216 120/145/218
f 110/135/219 109/134/217 120/145/218 121/146/220
f 111/136/221 110/135/219 121/146/220 122/147/222
f 112/137/223 111/136/221 122/147/222 123/148/224
f 113/138/225 112/137/223 123/148/224 124/149/226
s 4
f 115/140/227 114/139/228 81/150/229 82/151/230
f 116/141/231 115/140/227 82/151/230 83/152/232
f 117/142/233 116/141/231 83/152/232 84/153/234
f 118/143/235 117/142/233 84/153/234 85/154/236
f 119/144/237 118/143/235 85/154/236 86/155/238
f 120/145/239 119/144/237 86/155/238 87/156/240
f 121/146/241 120/145/239 87/156/240 88/157/242
f 122/147/243 121/146/241 88/157/242 89/158/244
f 123/148/245 122/147/243 89/158/244 90/159/246
f 124/149/247 123/148/245 90/159/246 91/160/248
